<svg xmlns="http://www.w3.org/2000/svg" xmlns:xlink="http://www.w3.org/1999/xlink" width="1000" zoomAndPan="magnify" viewBox="0 0 750 749.999995" height="1000" preserveAspectRatio="xMidYMid meet" version="1.0"><defs><g/><clipPath id="b5e2be27e2"><path d="M 152.121094 158.457031 L 248.871094 158.457031 L 248.871094 294.957031 L 152.121094 294.957031 Z M 152.121094 158.457031 " clip-rule="nonzero"/></clipPath><clipPath id="cc3e852a09"><path d="M 114 250 L 287 250 L 287 326.675781 L 114 326.675781 Z M 114 250 " clip-rule="nonzero"/></clipPath><clipPath id="4137cad71a"><path d="M 158 167.675781 L 243 167.675781 L 243 289 L 158 289 Z M 158 167.675781 " clip-rule="nonzero"/></clipPath><clipPath id="6a4415f480"><path d="M 125 251.144531 L 233 251.144531 L 233 328 L 125 328 Z M 125 251.144531 " clip-rule="nonzero"/></clipPath><clipPath id="fe26f2df94"><path d="M 117.765625 308 L 152 308 L 152 312 L 117.765625 312 Z M 117.765625 308 " clip-rule="nonzero"/></clipPath><clipPath id="e8a9ef58cf"><path d="M 181 264 L 199 264 L 199 332.894531 L 181 332.894531 Z M 181 264 " clip-rule="nonzero"/></clipPath><clipPath id="5c6c62bf1c"><path d="M 231 308 L 234.765625 308 L 234.765625 318 L 231 318 Z M 231 308 " clip-rule="nonzero"/></clipPath><clipPath id="fb4a0bfc7c"><path d="M 112 250 L 288.988281 250 L 288.988281 327.957031 L 112 327.957031 Z M 112 250 " clip-rule="nonzero"/></clipPath><clipPath id="f7f9c9b754"><path d="M 222 255.941406 L 277.054688 255.941406 L 277.054688 326.441406 L 222 326.441406 Z M 222 255.941406 " clip-rule="nonzero"/></clipPath><clipPath id="680bf5fa50"><path d="M 233 285 L 277.054688 285 L 277.054688 307 L 233 307 Z M 233 285 " clip-rule="nonzero"/></clipPath><clipPath id="06d9c940ce"><path d="M 259 255.941406 L 277.054688 255.941406 L 277.054688 312 L 259 312 Z M 259 255.941406 " clip-rule="nonzero"/></clipPath><clipPath id="f0af8672d0"><path d="M 220.054688 255.941406 L 224 255.941406 L 224 265 L 220.054688 265 Z M 220.054688 255.941406 " clip-rule="nonzero"/></clipPath><clipPath id="4ea170e177"><path d="M 214 251 L 260 251 L 260 267 L 214 267 Z M 214 251 " clip-rule="nonzero"/></clipPath><clipPath id="54b0aa8938"><path d="M 260.109375 253.410156 L 214.230469 267.511719 L 213.347656 264.644531 L 259.230469 250.539062 Z M 260.109375 253.410156 " clip-rule="nonzero"/></clipPath><clipPath id="825373a36b"><path d="M 260.109375 253.410156 L 214.230469 267.511719 L 213.347656 264.644531 L 259.230469 250.539062 Z M 260.109375 253.410156 " clip-rule="nonzero"/></clipPath></defs><g clip-path="url(#b5e2be27e2)"><path fill="#ffffff" d="M 234.773438 172.894531 C 225.792969 163.851562 213.828125 158.722656 201.058594 158.46875 C 200.871094 158.457031 200.683594 158.457031 200.496094 158.457031 C 200.308594 158.457031 200.121094 158.457031 199.933594 158.46875 C 187.164062 158.722656 175.199219 163.835938 166.203125 172.894531 C 157.128906 182.046875 152.136719 194.152344 152.136719 207.007812 C 152.136719 207.832031 152.164062 208.699219 152.203125 209.5625 C 152.203125 209.605469 152.203125 209.644531 152.214844 209.683594 C 152.375 212.613281 152.820312 215.558594 153.515625 218.433594 C 156.765625 234.777344 166.351562 247.816406 176.496094 261.628906 C 183.082031 270.59375 189.894531 279.863281 195.664062 290.828125 C 195.890625 292.746094 197.308594 294.355469 199.238281 294.808594 C 199.597656 294.890625 199.972656 294.941406 200.335938 294.941406 C 200.386719 294.941406 200.441406 294.941406 200.507812 294.941406 C 200.921875 294.957031 201.351562 294.917969 201.765625 294.824219 C 203.695312 294.355469 205.101562 292.757812 205.339844 290.839844 C 211.109375 279.878906 217.910156 270.621094 224.507812 261.644531 C 234.625 247.816406 244.210938 234.777344 247.476562 218.449219 C 248.1875 215.542969 248.613281 212.585938 248.773438 209.644531 C 248.773438 209.617188 248.773438 209.605469 248.773438 209.578125 C 248.816406 208.710938 248.839844 207.84375 248.839844 207.007812 C 248.855469 194.152344 243.847656 182.046875 234.773438 172.894531 Z M 239.40625 209.003906 C 239.40625 209.042969 239.40625 209.070312 239.40625 209.109375 C 239.273438 211.523438 238.921875 213.945312 238.335938 216.332031 C 238.320312 216.398438 238.308594 216.464844 238.292969 216.53125 C 235.457031 230.875 226.863281 242.570312 216.917969 256.101562 C 211.390625 263.628906 205.714844 271.355469 200.507812 280.210938 C 195.300781 271.355469 189.628906 263.628906 184.097656 256.101562 C 174.140625 242.570312 165.546875 230.875 162.710938 216.53125 C 162.695312 216.464844 162.683594 216.398438 162.667969 216.332031 C 162.082031 213.945312 161.71875 211.523438 161.597656 209.109375 C 161.597656 209.085938 161.597656 209.058594 161.597656 209.03125 C 161.558594 208.339844 161.546875 207.660156 161.546875 207.007812 C 161.546875 185.679688 178.972656 168.097656 200.402344 167.804688 C 200.441406 167.804688 200.46875 167.804688 200.507812 167.804688 C 200.550781 167.804688 200.574219 167.804688 200.617188 167.804688 C 222.046875 168.097656 239.472656 185.679688 239.472656 207.007812 C 239.457031 207.644531 239.433594 208.324219 239.40625 209.003906 Z M 239.40625 209.003906 " fill-opacity="1" fill-rule="nonzero"/></g><path fill="#ffffff" d="M 200.496094 186.308594 C 187.3125 186.308594 176.578125 196.988281 176.578125 210.109375 C 176.578125 223.230469 187.3125 233.910156 200.496094 233.910156 C 213.679688 233.910156 224.414062 223.230469 224.414062 210.109375 C 224.414062 196.988281 213.679688 186.308594 200.496094 186.308594 Z M 200.496094 224.546875 C 192.492188 224.546875 185.972656 218.0625 185.972656 210.097656 C 185.972656 202.132812 192.492188 195.644531 200.496094 195.644531 C 208.5 195.644531 215.019531 202.132812 215.019531 210.097656 C 215.019531 218.0625 208.5 224.546875 200.496094 224.546875 Z M 200.496094 224.546875 " fill-opacity="1" fill-rule="nonzero"/><g clip-path="url(#cc3e852a09)"><path fill="#ffffff" d="M 276.992188 326.40625 L 123.976562 326.40625 C 120.882812 326.40625 118.042969 324.988281 116.203125 322.394531 C 114.363281 319.890625 113.859375 316.710938 114.863281 313.703125 L 133.84375 257.121094 C 135.183594 253.195312 138.777344 250.605469 142.957031 250.605469 L 176.988281 250.605469 C 177.742188 250.605469 178.328125 251.1875 178.328125 251.941406 C 178.328125 252.691406 177.742188 253.277344 176.988281 253.277344 L 142.957031 253.277344 C 140.03125 253.277344 137.355469 255.199219 136.4375 257.957031 L 117.457031 314.625 C 116.703125 316.710938 117.121094 319.054688 118.375 320.808594 C 119.714844 322.648438 121.71875 323.648438 123.976562 323.648438 L 276.992188 323.648438 C 279.25 323.648438 281.257812 322.648438 282.59375 320.808594 C 283.933594 318.96875 284.269531 316.710938 283.515625 314.625 L 264.535156 258.042969 C 263.613281 255.199219 260.9375 253.363281 258.011719 253.363281 L 223.730469 253.363281 C 222.976562 253.363281 222.394531 252.777344 222.394531 252.023438 C 222.394531 251.273438 222.976562 250.6875 223.730469 250.6875 L 258.011719 250.6875 C 262.109375 250.6875 265.789062 253.277344 267.125 257.207031 L 286.109375 313.789062 C 287.109375 316.710938 286.609375 319.890625 284.769531 322.480469 C 282.929688 324.902344 280.085938 326.40625 276.992188 326.40625 Z M 276.992188 326.40625 " fill-opacity="1" fill-rule="nonzero"/></g><g clip-path="url(#4137cad71a)"><path fill="#ffffff" d="M 200.484375 288.128906 C 200.066406 288.128906 199.648438 287.960938 199.398438 287.542969 C 197.726562 285.289062 158.84375 232.050781 158.84375 209.566406 C 158.761719 186.667969 177.492188 167.945312 200.484375 167.945312 C 223.480469 167.945312 242.125 186.667969 242.125 209.566406 C 242.125 231.964844 203.246094 285.289062 201.574219 287.542969 C 201.320312 287.878906 200.902344 288.128906 200.484375 288.128906 Z M 200.484375 170.621094 C 178.996094 170.621094 161.519531 188.089844 161.519531 209.566406 C 161.519531 229.125 194.046875 275.425781 200.484375 284.367188 C 206.925781 275.425781 239.449219 229.039062 239.449219 209.566406 C 239.449219 188.089844 221.976562 170.621094 200.484375 170.621094 Z M 200.484375 170.621094 " fill-opacity="1" fill-rule="nonzero"/></g><path fill="#ffffff" d="M 200.484375 233.136719 C 187.527344 233.136719 176.988281 222.605469 176.988281 209.652344 C 176.988281 196.695312 187.527344 186.164062 200.484375 186.164062 C 213.445312 186.164062 223.980469 196.695312 223.980469 209.652344 C 223.980469 222.523438 213.445312 233.136719 200.484375 233.136719 Z M 200.484375 188.757812 C 189.03125 188.757812 179.664062 198.117188 179.664062 209.566406 C 179.664062 221.015625 189.03125 230.378906 200.484375 230.378906 C 211.941406 230.378906 221.304688 221.015625 221.304688 209.566406 C 221.304688 198.117188 211.941406 188.757812 200.484375 188.757812 Z M 200.484375 188.757812 " fill-opacity="1" fill-rule="nonzero"/><g clip-path="url(#6a4415f480)"><path fill="#ffffff" d="M 170.738281 327.949219 C 170.730469 327.949219 170.71875 327.949219 170.707031 327.949219 L 128.621094 325.871094 C 128.460938 325.863281 128.3125 325.796875 128.199219 325.683594 L 125.457031 322.953125 C 125.324219 322.824219 125.257812 322.644531 125.269531 322.460938 L 128.667969 270.71875 C 128.679688 270.550781 128.757812 270.394531 128.886719 270.28125 C 129.015625 270.171875 129.183594 270.113281 129.351562 270.128906 L 141.792969 270.992188 L 142.523438 262.648438 C 142.554688 262.296875 142.859375 262.042969 143.210938 262.066406 L 183.242188 265.140625 L 184.089844 257.820312 C 184.109375 257.648438 184.195312 257.492188 184.332031 257.386719 L 192.304688 251.277344 C 192.425781 251.183594 192.578125 251.140625 192.730469 251.144531 L 216.386719 252.316406 C 216.660156 252.328125 216.898438 252.519531 216.972656 252.78125 L 232.523438 309.207031 C 232.617188 309.539062 232.421875 309.886719 232.089844 309.984375 L 170.921875 327.925781 C 170.863281 327.941406 170.800781 327.949219 170.738281 327.949219 Z M 128.929688 324.609375 L 170.664062 326.671875 L 231.125 308.941406 L 215.859375 253.5625 L 192.902344 252.429688 L 185.328125 258.230469 L 184.445312 265.894531 C 184.40625 266.234375 184.097656 266.480469 183.761719 266.457031 L 143.742188 263.386719 L 143.015625 271.726562 C 142.984375 272.074219 142.679688 272.332031 142.332031 272.308594 L 129.902344 271.441406 L 126.566406 322.257812 Z M 128.929688 324.609375 " fill-opacity="1" fill-rule="nonzero"/></g><path fill="#ffffff" d="M 163.015625 327.570312 C 163 327.570312 162.984375 327.566406 162.96875 327.566406 C 162.613281 327.542969 162.351562 327.234375 162.375 326.886719 L 167.628906 255.886719 C 167.65625 255.535156 167.964844 255.273438 168.316406 255.296875 C 168.667969 255.324219 168.933594 255.628906 168.90625 255.980469 L 163.652344 326.980469 C 163.628906 327.3125 163.347656 327.570312 163.015625 327.570312 Z M 163.015625 327.570312 " fill-opacity="1" fill-rule="nonzero"/><path fill="#ffffff" d="M 165.929688 288.796875 C 165.902344 288.796875 165.875 288.796875 165.847656 288.796875 L 128.28125 286.4375 L 128.441406 283.894531 L 165.785156 286.242188 L 221.050781 270.070312 L 221.769531 272.515625 L 166.292969 288.746094 C 166.175781 288.78125 166.050781 288.796875 165.929688 288.796875 Z M 165.929688 288.796875 " fill-opacity="1" fill-rule="nonzero"/><path fill="#ffffff" d="M 152.324219 286.203125 L 153.796875 263.527344 L 155.074219 263.609375 L 153.601562 286.285156 Z M 152.324219 286.203125 " fill-opacity="1" fill-rule="nonzero"/><path fill="#ffffff" d="M 138.601562 310.503906 L 140.160156 285.90625 L 141.4375 285.988281 L 139.878906 310.582031 Z M 138.601562 310.503906 " fill-opacity="1" fill-rule="nonzero"/><g clip-path="url(#fe26f2df94)"><path fill="#ffffff" d="M 150.875 311.828125 C 150.859375 311.828125 150.84375 311.828125 150.828125 311.828125 L 118.398438 309.5625 C 118.046875 309.535156 117.78125 309.234375 117.804688 308.882812 C 117.832031 308.53125 118.136719 308.269531 118.488281 308.292969 L 150.917969 310.558594 C 151.269531 310.582031 151.535156 310.886719 151.511719 311.238281 C 151.488281 311.574219 151.207031 311.828125 150.875 311.828125 Z M 150.875 311.828125 " fill-opacity="1" fill-rule="nonzero"/></g><path fill="#ffffff" d="M 149.035156 326.226562 L 151.019531 299.835938 L 152.296875 299.929688 L 150.3125 326.320312 Z M 149.035156 326.226562 " fill-opacity="1" fill-rule="nonzero"/><path fill="#ffffff" d="M 139.972656 299.609375 L 140.070312 298.339844 L 165.371094 300.289062 L 165.269531 301.558594 Z M 139.972656 299.609375 " fill-opacity="1" fill-rule="nonzero"/><g clip-path="url(#e8a9ef58cf)"><path fill="#ffffff" d="M 197.371094 332.878906 C 197.039062 332.878906 196.734375 332.664062 196.632812 332.332031 L 181.839844 282.875 C 181.8125 282.789062 181.800781 282.699219 181.808594 282.609375 L 182.867188 265.613281 C 182.894531 265.191406 183.257812 264.875 183.683594 264.898438 C 184.105469 264.925781 184.425781 265.289062 184.402344 265.707031 L 183.347656 282.566406 L 198.105469 331.894531 C 198.226562 332.300781 197.996094 332.726562 197.589844 332.84375 C 197.515625 332.867188 197.441406 332.878906 197.371094 332.878906 Z M 197.371094 332.878906 " fill-opacity="1" fill-rule="nonzero"/></g><path fill="#ffffff" d="M 195.824219 278.777344 L 196.5625 278.566406 L 203.476562 302.507812 L 202.742188 302.71875 Z M 195.824219 278.777344 " fill-opacity="1" fill-rule="nonzero"/><path fill="#ffffff" d="M 199.816406 291.207031 L 224.921875 284.054688 L 225.132812 284.789062 L 200.027344 291.941406 Z M 199.816406 291.207031 " fill-opacity="1" fill-rule="nonzero"/><path fill="#ffffff" d="M 210.695312 288.503906 L 211.433594 288.292969 L 218.667969 313.257812 L 217.929688 313.46875 Z M 210.695312 288.503906 " fill-opacity="1" fill-rule="nonzero"/><path fill="#ffffff" d="M 189.582031 306.058594 L 214.171875 299.125 L 214.382812 299.859375 L 189.789062 306.792969 Z M 189.582031 306.058594 " fill-opacity="1" fill-rule="nonzero"/><g clip-path="url(#5c6c62bf1c)"><path fill="#ffffff" d="M 234.042969 317.03125 C 233.765625 317.03125 233.511719 316.851562 233.429688 316.578125 L 231.296875 309.558594 C 231.191406 309.222656 231.382812 308.867188 231.722656 308.765625 C 232.0625 308.664062 232.417969 308.851562 232.519531 309.1875 L 234.65625 316.210938 C 234.757812 316.546875 234.566406 316.902344 234.226562 317.003906 C 234.164062 317.023438 234.101562 317.03125 234.042969 317.03125 Z M 234.042969 317.03125 " fill-opacity="1" fill-rule="nonzero"/></g><g clip-path="url(#fb4a0bfc7c)"><path fill="#ffffff" d="M 278.652344 327.683594 L 122.324219 327.683594 C 119.164062 327.683594 116.257812 326.234375 114.378906 323.59375 C 112.5 321.039062 111.988281 317.804688 113.011719 314.738281 L 132.40625 257.089844 C 133.773438 253.089844 137.445312 250.449219 141.714844 250.449219 L 176.484375 250.449219 C 177.253906 250.449219 177.851562 251.046875 177.851562 251.8125 C 177.851562 252.578125 177.253906 253.171875 176.484375 253.171875 L 141.714844 253.171875 C 138.726562 253.171875 135.992188 255.132812 135.054688 257.941406 L 115.660156 315.675781 C 114.894531 317.804688 115.320312 320.1875 116.601562 321.976562 C 117.96875 323.851562 120.019531 324.871094 122.324219 324.871094 L 278.652344 324.871094 C 280.957031 324.871094 283.007812 323.851562 284.375 321.976562 C 285.742188 320.105469 286.082031 317.804688 285.316406 315.675781 L 265.921875 258.027344 C 264.984375 255.132812 262.25 253.257812 259.261719 253.257812 L 224.238281 253.257812 C 223.46875 253.257812 222.871094 252.664062 222.871094 251.894531 C 222.871094 251.128906 223.46875 250.535156 224.238281 250.535156 L 259.261719 250.535156 C 263.445312 250.535156 267.203125 253.171875 268.570312 257.175781 L 287.964844 314.824219 C 288.988281 317.804688 288.476562 321.039062 286.597656 323.679688 C 284.71875 326.148438 281.8125 327.683594 278.652344 327.683594 Z M 278.652344 327.683594 " fill-opacity="1" fill-rule="nonzero"/></g><path fill="#ffffff" d="M 200.488281 288.683594 C 200.0625 288.683594 199.632812 288.511719 199.378906 288.085938 C 197.667969 285.789062 157.945312 231.546875 157.945312 208.640625 C 157.863281 185.308594 176.996094 166.234375 200.488281 166.234375 C 223.980469 166.234375 243.03125 185.308594 243.03125 208.640625 C 243.03125 231.460938 203.308594 285.789062 201.597656 288.085938 C 201.34375 288.425781 200.914062 288.683594 200.488281 288.683594 Z M 200.488281 168.957031 C 178.535156 168.957031 160.679688 186.753906 160.679688 208.640625 C 160.679688 228.566406 193.910156 275.738281 200.488281 284.851562 C 207.066406 275.738281 240.296875 228.480469 240.296875 208.640625 C 240.296875 186.753906 222.441406 168.957031 200.488281 168.957031 Z M 200.488281 168.957031 " fill-opacity="1" fill-rule="nonzero"/><path fill="#ffffff" d="M 200.488281 232.652344 C 187.246094 232.652344 176.484375 221.921875 176.484375 208.722656 C 176.484375 195.527344 187.246094 184.796875 200.488281 184.796875 C 213.730469 184.796875 224.492188 195.527344 224.492188 208.722656 C 224.492188 221.835938 213.730469 232.652344 200.488281 232.652344 Z M 200.488281 187.4375 C 188.785156 187.4375 179.21875 196.972656 179.21875 208.640625 C 179.21875 220.304688 188.785156 229.84375 200.488281 229.84375 C 212.191406 229.84375 221.757812 220.304688 221.757812 208.640625 C 221.757812 196.972656 212.191406 187.4375 200.488281 187.4375 Z M 200.488281 187.4375 " fill-opacity="1" fill-rule="nonzero"/><path stroke-linecap="butt" transform="matrix(1.59313, 0, 0, 1.59313, 183.552884, 163.871642)" fill="none" stroke-linejoin="miter" d="M 2.735039 54.643462 L 18.358764 54.643462 L 18.358764 123.000937 L 2.735039 123.000937 Z M 2.735039 54.643462 " stroke="#ffffff" stroke-width="8.333312" stroke-opacity="1" stroke-miterlimit="4"/><g fill="#ff8b03" fill-opacity="1"><g transform="translate(183.552884, 359.826633)"><g><path d="M 4.359375 0 L 4.359375 -108.90625 L 29.25 -108.90625 L 29.25 0 Z M 4.359375 0 "/></g></g></g><g clip-path="url(#f7f9c9b754)"><path fill="#ffffff" d="M 289.039062 243.375 C 289.050781 243.375 289.0625 243.375 289.074219 243.375 L 334.671875 245.625 C 334.84375 245.636719 335.003906 245.707031 335.125 245.828125 L 338.101562 248.78125 C 338.242188 248.921875 338.316406 249.117188 338.300781 249.316406 L 334.621094 305.328125 C 334.609375 305.511719 334.523438 305.683594 334.382812 305.804688 C 334.246094 305.925781 334.0625 305.984375 333.878906 305.972656 L 320.398438 305.035156 L 319.609375 314.070312 C 319.574219 314.445312 319.246094 314.726562 318.863281 314.699219 L 275.492188 311.371094 L 274.574219 319.296875 C 274.554688 319.480469 274.460938 319.648438 274.308594 319.765625 L 265.671875 326.378906 C 265.542969 326.476562 265.378906 326.527344 265.214844 326.519531 L 239.585938 325.253906 C 239.285156 325.238281 239.03125 325.035156 238.949219 324.75 L 222.097656 263.667969 C 222 263.304688 222.210938 262.929688 222.570312 262.824219 L 288.84375 243.402344 C 288.90625 243.382812 288.972656 243.375 289.039062 243.375 Z M 334.335938 246.988281 L 289.121094 244.757812 L 223.617188 263.953125 L 240.15625 323.902344 L 265.027344 325.132812 L 273.230469 318.851562 L 274.191406 310.554688 C 274.234375 310.1875 274.566406 309.917969 274.933594 309.945312 L 318.285156 313.269531 L 319.078125 304.238281 C 319.109375 303.863281 319.441406 303.582031 319.816406 303.613281 L 333.28125 304.550781 L 336.898438 249.535156 Z M 334.335938 246.988281 " fill-opacity="1" fill-rule="nonzero"/></g><g clip-path="url(#680bf5fa50)"><path fill="#ffffff" d="M 294.25 285.757812 C 294.277344 285.757812 294.308594 285.761719 294.335938 285.761719 L 335.039062 288.316406 L 334.867188 291.066406 L 294.40625 288.527344 L 234.53125 306.03125 L 233.75 303.386719 L 293.859375 285.816406 C 293.984375 285.777344 294.117188 285.757812 294.25 285.757812 Z M 294.25 285.757812 " fill-opacity="1" fill-rule="nonzero"/></g><g clip-path="url(#06d9c940ce)"><path fill="#ffffff" d="M 260.1875 238.039062 C 260.546875 238.039062 260.875 238.273438 260.984375 238.632812 L 277.015625 292.171875 C 277.042969 292.265625 277.050781 292.363281 277.046875 292.460938 L 275.898438 310.859375 C 275.871094 311.3125 275.476562 311.660156 275.015625 311.632812 C 274.558594 311.601562 274.207031 311.210938 274.238281 310.753906 L 275.375 292.503906 L 259.390625 239.105469 C 259.257812 238.667969 259.507812 238.207031 259.949219 238.074219 C 260.027344 238.050781 260.109375 238.039062 260.1875 238.039062 Z M 260.1875 238.039062 " fill-opacity="1" fill-rule="nonzero"/></g><path fill="#ffffff" d="M 261.859375 296.609375 L 261.0625 296.835938 L 253.570312 270.917969 L 254.367188 270.6875 Z M 261.859375 296.609375 " fill-opacity="1" fill-rule="nonzero"/><path fill="#ffffff" d="M 257.539062 283.152344 L 230.335938 290.894531 L 230.105469 290.101562 L 257.308594 282.355469 Z M 257.539062 283.152344 " fill-opacity="1" fill-rule="nonzero"/><path fill="#ffffff" d="M 245.75 286.078125 L 244.953125 286.308594 L 237.113281 259.277344 L 237.914062 259.050781 Z M 245.75 286.078125 " fill-opacity="1" fill-rule="nonzero"/><path fill="#ffffff" d="M 268.625 267.074219 L 241.980469 274.582031 L 241.753906 273.785156 L 268.398438 266.277344 Z M 268.625 267.074219 " fill-opacity="1" fill-rule="nonzero"/><g clip-path="url(#f0af8672d0)"><path fill="#ffffff" d="M 220.457031 255.195312 C 220.753906 255.195312 221.027344 255.386719 221.117188 255.6875 L 223.429688 263.285156 C 223.542969 263.648438 223.335938 264.035156 222.96875 264.144531 C 222.601562 264.253906 222.214844 264.046875 222.105469 263.683594 L 219.792969 256.085938 C 219.679688 255.71875 219.886719 255.335938 220.253906 255.226562 C 220.320312 255.207031 220.390625 255.195312 220.457031 255.195312 Z M 220.457031 255.195312 " fill-opacity="1" fill-rule="nonzero"/></g><g clip-path="url(#4ea170e177)"><g clip-path="url(#54b0aa8938)"><g clip-path="url(#825373a36b)"><path fill="#ffffff" d="M 216.199219 266.90625 L 258.140625 254.015625 C 258.964844 253.761719 259.4375 252.910156 259.195312 252.121094 C 258.953125 251.328125 258.085938 250.890625 257.257812 251.148438 L 215.316406 264.039062 C 214.492188 264.292969 214.019531 265.140625 214.261719 265.933594 C 214.503906 266.722656 215.371094 267.160156 216.199219 266.90625 Z M 216.199219 266.90625 " fill-opacity="1" fill-rule="nonzero"/></g></g></g><path stroke-linecap="butt" transform="matrix(0.736174, 0.0683048, -0.0692899, 0.746792, 274.840273, 309.625289)" fill="none" stroke-linejoin="miter" d="M -0.00207902 0.998868 L 13.189169 1.000634 " stroke="#ffffff" stroke-width="2" stroke-opacity="1" stroke-miterlimit="4"/><g fill="#002334" fill-opacity="0.4"><g transform="translate(57.541015, 537.54644)"><g><path d="M 75.339844 1.949219 C 110.449219 1.949219 138 -19.261719 138 -46.570312 L 138 -146.289062 L 100.695312 -146.289062 L 100.695312 -53.640625 C 100.695312 -40.71875 89.480469 -30.476562 75.339844 -30.476562 C 61.199219 -30.476562 49.980469 -40.71875 49.980469 -53.640625 L 49.980469 -146.289062 L 12.679688 -146.289062 L 12.679688 -46.570312 C 12.679688 -19.261719 40.230469 1.949219 75.339844 1.949219 Z M 75.339844 1.949219 "/></g></g></g><g fill="#002334" fill-opacity="0.4"><g transform="translate(196.515641, 537.54644)"><g><path d="M 118.496094 -146.289062 L 118.496094 -56.808594 L 52.421875 -146.289062 L 13.410156 -146.289062 L 13.410156 0 L 50.714844 0 L 50.714844 -89.722656 L 116.542969 0 L 155.796875 0 L 155.796875 -146.289062 Z M 118.496094 -146.289062 "/></g></g></g><g fill="#002334" fill-opacity="0.4"><g transform="translate(354.020223, 537.54644)"><g><path d="M 105.328125 -113.863281 L 105.328125 -146.289062 L 14.628906 -146.289062 L 14.628906 0 L 105.328125 0 L 105.328125 -32.425781 L 51.933594 -32.425781 L 51.933594 -57.054688 L 97.039062 -57.054688 L 97.039062 -89.238281 L 51.933594 -89.238281 L 51.933594 -113.863281 Z M 105.328125 -113.863281 "/></g></g></g><g fill="#002334" fill-opacity="0.4"><g transform="translate(455.934914, 537.54644)"><g><path d="M 140.4375 -146.289062 L 97.039062 -53.152344 L 53.882812 -146.289062 L 13.410156 -146.289062 L 13.410156 0 L 50.714844 0 L 50.714844 -78.753906 L 87.042969 0 L 107.035156 0 L 143.363281 -78.265625 L 143.363281 0 L 180.667969 0 L 180.667969 -146.289062 Z M 140.4375 -146.289062 "/></g></g></g><g fill="#002334" fill-opacity="0.4"><g transform="translate(638.308685, 537.54644)"><g><path d="M 14.628906 0 L 51.933594 0 L 51.933594 -146.289062 L 14.628906 -146.289062 Z M 14.628906 0 "/></g></g></g><g fill="#ffffff" fill-opacity="1"><g transform="translate(52.368845, 532.374282)"><g><path d="M 75.339844 1.949219 C 110.449219 1.949219 138 -19.261719 138 -46.570312 L 138 -146.289062 L 100.695312 -146.289062 L 100.695312 -53.640625 C 100.695312 -40.71875 89.480469 -30.476562 75.339844 -30.476562 C 61.199219 -30.476562 49.980469 -40.71875 49.980469 -53.640625 L 49.980469 -146.289062 L 12.679688 -146.289062 L 12.679688 -46.570312 C 12.679688 -19.261719 40.230469 1.949219 75.339844 1.949219 Z M 75.339844 1.949219 "/></g></g></g><g fill="#ffffff" fill-opacity="1"><g transform="translate(191.343471, 532.374282)"><g><path d="M 118.496094 -146.289062 L 118.496094 -56.808594 L 52.421875 -146.289062 L 13.410156 -146.289062 L 13.410156 0 L 50.714844 0 L 50.714844 -89.722656 L 116.542969 0 L 155.796875 0 L 155.796875 -146.289062 Z M 118.496094 -146.289062 "/></g></g></g><g fill="#ffffff" fill-opacity="1"><g transform="translate(348.848053, 532.374282)"><g><path d="M 105.328125 -113.863281 L 105.328125 -146.289062 L 14.628906 -146.289062 L 14.628906 0 L 105.328125 0 L 105.328125 -32.425781 L 51.933594 -32.425781 L 51.933594 -57.054688 L 97.039062 -57.054688 L 97.039062 -89.238281 L 51.933594 -89.238281 L 51.933594 -113.863281 Z M 105.328125 -113.863281 "/></g></g></g><g fill="#ffffff" fill-opacity="1"><g transform="translate(450.762744, 532.374282)"><g><path d="M 140.4375 -146.289062 L 97.039062 -53.152344 L 53.882812 -146.289062 L 13.410156 -146.289062 L 13.410156 0 L 50.714844 0 L 50.714844 -78.753906 L 87.042969 0 L 107.035156 0 L 143.363281 -78.265625 L 143.363281 0 L 180.667969 0 L 180.667969 -146.289062 Z M 140.4375 -146.289062 "/></g></g></g><g fill="#ffffff" fill-opacity="1"><g transform="translate(633.136515, 532.374282)"><g><path d="M 14.628906 0 L 51.933594 0 L 51.933594 -146.289062 L 14.628906 -146.289062 Z M 14.628906 0 "/></g></g></g><g fill="#a25902" fill-opacity="0.4"><g transform="translate(347.804136, 357.604232)"><g><path d="M 5.84375 0 L 5.84375 -167.546875 L 38.234375 -167.546875 L 38.234375 0 Z M 5.84375 0 "/></g></g></g><g fill="#a25902" fill-opacity="0.4"><g transform="translate(403.78052, 357.604232)"><g><path d="M 7.40625 0 L 7.40625 -167.546875 L 41.9375 -167.546875 L 57.34375 -87.375 L 57.34375 -167.546875 L 89.71875 -167.546875 L 89.71875 0 L 56.953125 0 L 40.171875 -83.875 L 40.171875 0 Z M 7.40625 0 "/></g></g></g><g fill="#a25902" fill-opacity="0.4"><g transform="translate(512.611533, 357.604232)"><g><path d="M 7.40625 0 L 7.40625 -167.546875 L 74.515625 -167.546875 L 74.515625 -134.96875 L 41.15625 -134.96875 L 41.15625 -108.25 L 72.75 -108.25 L 72.75 -76.0625 L 41.15625 -76.0625 L 41.15625 0 Z M 7.40625 0 "/></g></g></g><g fill="#a25902" fill-opacity="0.4"><g transform="translate(602.134017, 357.604232)"><g><path d="M 47.390625 1.5625 C 33.867188 1.5625 23.597656 -2.5625 16.578125 -10.8125 C 9.554688 -19.070312 6.046875 -30.679688 6.046875 -45.640625 L 6.046875 -125.421875 C 6.046875 -139.847656 9.554688 -150.734375 16.578125 -158.078125 C 23.597656 -165.429688 33.867188 -169.109375 47.390625 -169.109375 C 60.921875 -169.109375 71.195312 -165.429688 78.21875 -158.078125 C 85.238281 -150.734375 88.75 -139.847656 88.75 -125.421875 L 88.75 -45.640625 C 88.75 -30.554688 85.238281 -18.914062 78.21875 -10.71875 C 71.195312 -2.53125 60.921875 1.5625 47.390625 1.5625 Z M 47.390625 -29.25 C 50.378906 -29.25 52.394531 -30.550781 53.4375 -33.15625 C 54.476562 -35.757812 55 -39.398438 55 -44.078125 L 55 -126 C 55 -129.644531 54.507812 -132.601562 53.53125 -134.875 C 52.5625 -137.144531 50.582031 -138.28125 47.59375 -138.28125 C 42 -138.28125 39.203125 -134.054688 39.203125 -125.609375 L 39.203125 -43.890625 C 39.203125 -39.078125 39.785156 -35.429688 40.953125 -32.953125 C 42.128906 -30.484375 44.273438 -29.25 47.390625 -29.25 Z M 47.390625 -29.25 "/></g></g></g><g fill="#ff8a00" fill-opacity="1"><g transform="translate(342.631949, 352.432058)"><g><path d="M 5.84375 0 L 5.84375 -167.546875 L 38.234375 -167.546875 L 38.234375 0 Z M 5.84375 0 "/></g></g></g><g fill="#ff8a00" fill-opacity="1"><g transform="translate(398.608334, 352.432058)"><g><path d="M 7.40625 0 L 7.40625 -167.546875 L 41.9375 -167.546875 L 57.34375 -87.375 L 57.34375 -167.546875 L 89.71875 -167.546875 L 89.71875 0 L 56.953125 0 L 40.171875 -83.875 L 40.171875 0 Z M 7.40625 0 "/></g></g></g><g fill="#ff8a00" fill-opacity="1"><g transform="translate(507.439346, 352.432058)"><g><path d="M 7.40625 0 L 7.40625 -167.546875 L 74.515625 -167.546875 L 74.515625 -134.96875 L 41.15625 -134.96875 L 41.15625 -108.25 L 72.75 -108.25 L 72.75 -76.0625 L 41.15625 -76.0625 L 41.15625 0 Z M 7.40625 0 "/></g></g></g><g fill="#ff8a00" fill-opacity="1"><g transform="translate(596.96183, 352.432058)"><g><path d="M 47.390625 1.5625 C 33.867188 1.5625 23.597656 -2.5625 16.578125 -10.8125 C 9.554688 -19.070312 6.046875 -30.679688 6.046875 -45.640625 L 6.046875 -125.421875 C 6.046875 -139.847656 9.554688 -150.734375 16.578125 -158.078125 C 23.597656 -165.429688 33.867188 -169.109375 47.390625 -169.109375 C 60.921875 -169.109375 71.195312 -165.429688 78.21875 -158.078125 C 85.238281 -150.734375 88.75 -139.847656 88.75 -125.421875 L 88.75 -45.640625 C 88.75 -30.554688 85.238281 -18.914062 78.21875 -10.71875 C 71.195312 -2.53125 60.921875 1.5625 47.390625 1.5625 Z M 47.390625 -29.25 C 50.378906 -29.25 52.394531 -30.550781 53.4375 -33.15625 C 54.476562 -35.757812 55 -39.398438 55 -44.078125 L 55 -126 C 55 -129.644531 54.507812 -132.601562 53.53125 -134.875 C 52.5625 -137.144531 50.582031 -138.28125 47.59375 -138.28125 C 42 -138.28125 39.203125 -134.054688 39.203125 -125.609375 L 39.203125 -43.890625 C 39.203125 -39.078125 39.785156 -35.429688 40.953125 -32.953125 C 42.128906 -30.484375 44.273438 -29.25 47.390625 -29.25 Z M 47.390625 -29.25 "/></g></g></g></svg>