<svg width="613" height="94" viewBox="0 0 613 94" fill="none" xmlns="http://www.w3.org/2000/svg">
<path d="M18.7968 92H0.742164V6.83923H18.7968V92ZM98.9358 49.549V92H81.14V53.9494C81.14 49.2039 80.2988 45.6879 78.6163 43.4014C76.9338 41.0718 74.2806 39.907 70.6567 39.907C65.7386 39.907 62.1579 41.5679 59.9146 44.8898C57.6712 48.1685 56.5495 53.669 56.5495 61.3913V92H38.8185V26.8999H52.408L54.8023 35.2477H55.773C57.7144 32.1416 60.4107 29.7688 63.862 28.1294C67.3564 26.4901 71.3254 25.6704 75.769 25.6704C83.3618 25.6704 89.1212 27.7196 93.047 31.818C96.9729 35.8733 98.9358 41.7836 98.9358 49.549ZM153.173 26.8999V40.2305H137.837V92H120.041V40.2305H110.269V31.6886L120.041 26.8999V22.1112C120.041 14.6909 121.874 9.27671 125.541 5.86855C129.208 2.4604 135.054 0.756317 143.078 0.756317C149.204 0.756317 154.64 1.66228 159.386 3.47421L154.856 16.546C151.232 15.4243 148.061 14.8635 145.343 14.8635C142.668 14.8635 140.749 15.5753 139.584 16.999C138.419 18.4226 137.837 20.364 137.837 22.8231V26.8999H153.173ZM201.235 44.7604C199.121 41.5679 195.713 39.9717 191.011 39.9717C186.308 39.9717 182.9 41.5679 180.786 44.7604C178.672 47.9097 177.615 52.7846 177.615 59.3852C177.615 65.9427 178.694 70.8392 180.851 74.0748C183.008 77.3104 186.416 78.9282 191.075 78.9282C195.735 78.9282 199.121 77.3104 201.235 74.0748C203.392 70.8392 204.471 65.9427 204.471 59.3852C204.471 52.7846 203.392 47.9097 201.235 44.7604ZM191.205 25.6704C200.653 25.5409 208.289 28.5824 214.113 34.7947C219.937 40.9639 222.763 49.1392 222.59 59.3205C222.59 69.9333 219.786 78.238 214.178 84.2346C208.612 90.1881 200.847 93.1648 190.881 93.1648C181.433 93.2511 173.797 90.1881 167.973 83.9757C162.192 77.7634 159.367 69.545 159.496 59.3205C159.496 48.7078 162.257 40.4462 167.779 34.5359C173.344 28.6255 181.153 25.6704 191.205 25.6704Z" fill="#FF8A00"/>
<path d="M289.994 6.83923H308.049V61.9737C308.135 71.4216 304.964 79.0145 298.536 84.7523C292.108 90.4901 283.501 93.2942 272.716 93.1648C261.715 93.1648 253.194 90.3606 247.155 84.7523C241.158 79.1008 238.16 71.4216 238.16 61.7149V6.83923H256.15V58.997C256.15 65.6407 257.465 70.4725 260.097 73.4924C262.772 76.5123 267.086 78.0222 273.039 78.0222C279.036 78.0222 283.35 76.4907 285.982 73.4277C288.657 70.3647 289.994 65.5113 289.994 58.8675V6.83923ZM387.561 49.549V92H369.765V53.9494C369.765 49.2039 368.924 45.6879 367.241 43.4014C365.559 41.0718 362.906 39.907 359.282 39.907C354.364 39.907 350.783 41.5679 348.54 44.8898C346.296 48.1685 345.175 53.669 345.175 61.3913V92H327.444V26.8999H341.033L343.427 35.2477H344.398C346.339 32.1416 349.036 29.7688 352.487 28.1294C355.981 26.4901 359.95 25.6704 364.394 25.6704C371.987 25.6704 377.746 27.7196 381.672 31.818C385.598 35.8733 387.561 41.7836 387.561 49.549ZM445.163 52.0728C445.12 47.7155 443.998 44.329 441.798 41.913C439.598 39.4971 436.6 38.2892 432.803 38.2892C429.05 38.2892 426.095 39.4971 423.938 41.913C421.781 44.2858 420.551 47.6724 420.249 52.0728H445.163ZM458.17 88.5703C452.044 91.6333 444.408 93.1648 435.262 93.1648C424.779 93.1648 416.582 90.2959 410.672 84.5581C404.805 78.7772 401.871 70.4941 401.871 59.7088C401.871 48.9235 404.589 40.5541 410.025 34.6006C415.547 28.6471 422.989 25.6704 432.35 25.6704C441.755 25.6704 449.024 28.302 454.158 33.5652C459.292 38.8284 461.859 46.0546 461.859 55.2437V63.8504H419.861C420.034 68.941 421.522 72.91 424.326 75.7573C427.173 78.5615 431.099 79.9636 436.104 79.9636C443.567 79.9636 450.923 78.2595 458.17 74.8514V88.5703ZM534.624 59.3205V92H516.828V53.9494C516.828 49.2039 516.03 45.6879 514.434 43.4014C512.838 41.0718 510.378 39.907 507.057 39.907C502.527 39.907 499.226 41.5679 497.156 44.8898C495.085 48.1685 494.05 53.669 494.05 61.3913V92H476.319V26.8999H489.908L492.302 35.2477H493.273C494.999 32.2278 497.501 29.8766 500.78 28.1941C504.101 26.5116 507.898 25.6704 512.169 25.6704C521.962 25.6704 528.563 28.8628 531.971 35.2477H533.588C535.271 32.1847 537.816 29.8335 541.224 28.1941C544.633 26.5116 548.494 25.6704 552.808 25.6704C560.314 25.6704 565.923 27.5902 569.633 31.4297C573.343 35.2693 575.198 41.3091 575.198 49.549V92H557.402V53.9494C557.402 49.2039 556.604 45.6879 555.008 43.4014C553.412 41.0718 550.953 39.907 547.631 39.907C543.231 39.907 539.952 41.4816 537.795 44.6309C535.681 47.7371 534.624 52.6336 534.624 59.3205ZM611.175 26.8999V92H593.444V26.8999H611.175ZM602.374 18.8109C595.903 18.8109 592.667 15.9205 592.667 10.1395C592.667 4.31547 595.881 1.40343 602.309 1.40343C608.78 1.40343 612.016 4.2939 612.016 10.0748C612.016 12.879 611.196 15.0361 609.557 16.546C607.917 18.0559 605.523 18.8109 602.374 18.8109Z" fill="white"/>
</svg>
